<svg xmlns="http://www.w3.org/2000/svg" xmlns:xlink="http://www.w3.org/1999/xlink" 
version="1.1" x="0px" y="0px" viewBox="0 0 3876.8 4836.5" style="enable-background:new 0 0 3876.8 3869.2;" xml:space="preserve"><g>
<path d="M3530.1,2938.4H346.6c-95.1,0-172.5-77.4-172.5-172.5V992.2c0-95.1,77.4-172.5,172.5-172.5H696c33.5,0,60.6,27.1,60.6,60.6   c0,33.5-27.1,60.6-60.6,60.6H346.6c-28.3,0-51.3,23-51.3,51.3v1773.7c0,28.3,23,51.3,51.3,51.3h3183.5c28.3,0,51.3-23,51.3-51.3   V992.2c0-28.3-23-51.3-51.3-51.3h-349.3c-33.5,0-60.6-27.1-60.6-60.6c0-33.5,27.1-60.6,60.6-60.6h349.3   c95.1,0,172.5,77.4,172.5,172.5v1773.7C3702.6,2861,3625.2,2938.4,3530.1,2938.4z"/></g><g>
<path d="M1718.8,3270.2c-33.5,0-60.6-27.1-60.6-60.6v-331.8c0-33.5,27.1-60.6,60.6-60.6s60.6,27.1,60.6,60.6v331.8   C1779.4,3243.1,1752.3,3270.2,1718.8,3270.2z"/></g><g><path d="M2157.9,3270.2c-33.5,0-60.6-27.1-60.6-60.6v-331.8c0-33.5,27.1-60.6,60.6-60.6c33.5,0,60.6,27.1,60.6,60.6v331.8   C2218.5,3243.1,2191.4,3270.2,2157.9,3270.2z"/></g><g><path d="M2631.7,3621.9H1245c-33.5,0-60.6-27.1-60.6-60.6v-128.5c0-156.4,127.3-283.7,283.7-283.7h940.5   c156.4,0,283.7,127.3,283.7,283.7v128.5C2692.3,3594.7,2665.2,3621.9,2631.7,3621.9z M2571.2,3500.7v-68   c0-89.6-72.9-162.5-162.5-162.5h-940.5c-89.6,0-162.5,72.9-162.5,162.5v68C1328,3500.7,2549,3500.7,2571.2,3500.7z"/></g><g><path d="M3642,2535.2H234.7c-33.5,0-60.6-27.1-60.6-60.6s27.1-60.6,60.6-60.6H3642c33.5,0,60.6,27.1,60.6,60.6   S3675.5,2535.2,3642,2535.2z"/></g><g><path d="M3398,2736.8h-120.7c-33.5,0-60.6-27.1-60.6-60.6s27.1-60.6,60.6-60.6H3398c33.5,0,60.6,27.1,60.6,60.6   S3431.5,2736.8,3398,2736.8z"/></g><g><path d="M2985.4,2736.8h-120.7c-33.5,0-60.6-27.1-60.6-60.6s27.1-60.6,60.6-60.6h120.7c33.5,0,60.6,27.1,60.6,60.6   S3018.9,2736.8,2985.4,2736.8z"/></g><g><path d="M2572.8,2736.8h-120.7c-33.5,0-60.6-27.1-60.6-60.6s27.1-60.6,60.6-60.6h120.7c33.5,0,60.6,27.1,60.6,60.6   S2606.3,2736.8,2572.8,2736.8z"/></g><g><path d="M3180.8,2145H696c-33.5,0-60.6-27.1-60.6-60.6V156.2c0-33.5,27.1-60.6,60.6-60.6h2484.8c33.5,0,60.6,27.1,60.6,60.6v1928.2   C3241.4,2117.9,3214.3,2145,3180.8,2145z M756.5,2023.8h2363.7v-1807H756.5V2023.8z"/></g><g><g><g><g><g><path d="M1494.4,1856.1c-24.2-23.1-25.1-61.4-2-85.6l80.7-84.6l-80.7-84.6c-23.1-24.2-22.2-62.6,2-85.6       c24.2-23.1,62.6-22.2,85.6,2l120.5,126.4c22.3,23.4,22.3,60.2,0,83.6l-120.5,126.4C1557,1878.3,1518.7,1879.2,1494.4,1856.1z"/></g><g><path d="M1004.8,1854.1l-120.5-126.4c-22.3-23.4-22.3-60.2,0-83.6l120.5-126.4c23.1-24.2,61.4-25.1,85.6-2       c24.2,23.1,25.1,61.4,2,85.6l-80.7,84.6l80.7,84.6c23.1,24.2,22.2,62.6-2,85.6C1066.3,1879.2,1027.9,1878.4,1004.8,1854.1z"/></g></g><g><path d="M1219.4,1897c-31.6-10.9-48.4-45.4-37.4-77.1l106.4-307.6c10.9-31.6,45.4-48.4,77.1-37.4c31.6,10.9,48.4,45.4,37.4,77.1      l-106.4,307.6C1285.6,1891.1,1251.1,1907.9,1219.4,1897z"/></g></g><g><g><g><path d="M2786.3,1856.1c-24.2-23.1-25.1-61.4-2-85.6l80.7-84.6l-80.7-84.6c-23.1-24.2-22.2-62.6,2-85.6       c24.2-23.1,62.6-22.2,85.6,2l120.5,126.4c22.3,23.4,22.3,60.2,0,83.6L2872,1854.1C2848.9,1878.3,2810.5,1879.2,2786.3,1856.1z"/></g><g><path d="M2296.7,1854.1l-120.5-126.4c-22.3-23.4-22.3-60.2,0-83.6l120.5-126.4c23.1-24.2,61.4-25.1,85.6-2       c24.2,23.1,25.1,61.4,2,85.6l-80.7,84.6l80.7,84.6c23.1,24.2,22.2,62.6-2,85.6C2358.2,1879.2,2319.8,1878.4,2296.7,1854.1z"/></g></g><g><path d="M2531.1,1900.3c-41.4,0-70.9-40.9-57.2-80.4l106.4-307.6c10.9-31.6,45.4-48.4,77.1-37.4c31.6,10.9,48.4,45.4,37.4,77.1      l-106.4,307.6C2579.7,1884.6,2556.2,1900.3,2531.1,1900.3z"/></g></g></g><g><g><path d="M2930.9,512.4h-1985c-33.5,0-60.6-27.1-60.6-60.6s27.1-60.6,60.6-60.6h1985c33.5,0,60.6,27.1,60.6,60.6     S2964.4,512.4,2930.9,512.4z"/></g><g><path d="M2930.9,846.6h-1985c-33.5,0-60.6-27.1-60.6-60.6c0-33.5,27.1-60.6,60.6-60.6h1985c33.5,0,60.6,27.1,60.6,60.6     C2991.5,819.5,2964.4,846.6,2930.9,846.6z"/></g><g><path d="M2930.9,1180.9h-1985c-33.5,0-60.6-27.1-60.6-60.6s27.1-60.6,60.6-60.6h1985c33.5,0,60.6,27.1,60.6,60.6     C2991.5,1153.8,2964.4,1180.9,2930.9,1180.9z"/></g></g></g><text x="0" y="3884.2" fill="#000000" font-size="5px" font-weight="bold" font-family="'Helvetica Neue', Helvetica, Arial-Unicode, Arial, Sans-serif"></text><text x="0" y="3889.2" fill="#000000" font-size="5px" 
font-weight="bold" font-family="'Helvetica Neue', Helvetica, Arial-Unicode, Arial, Sans-serif">from the Noun Project</text></svg>