<svg xmlns="http://www.w3.org/2000/svg" xmlns:xlink="http://www.w3.org/1999/xlink" version="1.1" x="0px" y="0px" viewBox="0 0 512 640" style="enable-background:new 0 0 512 512;" xml:space="preserve"><path d="M102.7,279.9h-7v-14h256v14H102.7z M102.7,240.5h-7v-14h61.5v14H102.7z M102.7,200.9h-7v-14h121.5v14H102.7z M102.7,161.5  h-7v-14h61.5v14H102.7z M290.8,181.6l5.4,4.4l-8.9,10.8L243.9,161l43.4-35.7l8.8,10.8l-30.3,25L290.8,181.6z M359.9,100.4l3.5-6  l12.1,6.9l-73,126.5l-12.1-6.9L359.9,100.4z M383.9,192.3l-5.4,4.5l-8.8-10.8L400,161l-30.3-25l8.8-10.8l43.4,35.7L383.9,192.3z   M298,364.7l50.5,55.1h34.8v62.8H131.1v-62.8h34.8l50.5-55.1H25.3V36.5h464v328.2H298z M296.3,383.4l-17.2-18.7h-43.7l-50.5,55.1  h144.7L296.3,383.4z M369.4,433.8c-74.8,0-149.6,0-224.3,0v34.8h224.3V433.8z M61.3,63.6h398.9v274.1H54.3V63.6H61.3z M446.2,77.6  H68.3v246.1h377.9V77.6z M475.3,50.5h-436v300.2h436V50.5z"/><text x="0" y="527" fill="#000000" font-size="5px" font-weight="bold" font-family="'Helvetica Neue', Helvetica, Arial-Unicode, Arial, Sans-serif"></text><text x="0" y="532" fill="#000000" font-size="5px" font-weight="bold" font-family="'Helvetica Neue', Helvetica, Arial-Unicode, Arial, Sans-serif"></text></svg>