<svg xmlns="http://www.w3.org/2000/svg" version="1.1" viewBox="-5.0 -10.0 110.0 135.0">
 <g>
  <path d="m33.332 37.5c0-1.4844-0.57812-2.8789-1.6289-3.9297l-8.5703-8.5703 8.5703-8.5703c1.0508-1.0469 1.6289-2.4453 1.6289-3.9297s-0.57812-2.8789-1.625-3.9297c-2.0977-2.1016-5.7578-2.1016-7.8555 0l-12.5 12.5c-1.0508 1.0469-1.6289 2.4453-1.6289 3.9297s0.57812 2.8789 1.6289 3.9297l12.5 12.5c1.0508 1.0508 2.4453 1.6289 3.9297 1.6289s2.8789-0.57812 3.9297-1.6289c1.0508-1.0469 1.6289-2.4453 1.6289-3.9297zm-3.5898 1.9609c-1.0469 1.0508-2.8789 1.0508-3.9258 0l-12.5-12.5c-0.52344-0.52344-0.8125-1.2227-0.8125-1.9648 0-0.74219 0.28906-1.4375 0.8125-1.9648l12.5-12.5c0.52344-0.52344 1.2227-0.8125 1.9648-0.8125s1.4375 0.28906 1.9648 0.8125c0.52344 0.52344 0.8125 1.2227 0.8125 1.9648 0 0.74219-0.28906 1.4375-0.8125 1.9648l-9.5547 9.5547c-0.54297 0.54297-0.54297 1.4219 0 1.9648l9.5547 9.5547c0.52344 0.52344 0.8125 1.2227 0.8125 1.9648s-0.28906 1.4375-0.81641 1.9648z"/>
  <path d="m61.109 37.5c0 1.4844 0.57812 2.8789 1.625 3.9297 1.0508 1.0508 2.4453 1.6289 3.9297 1.6289 1.4844 0 2.8789-0.57812 3.9297-1.6289l12.5-12.5c1.0508-1.0469 1.6289-2.4453 1.6289-3.9297s-0.57812-2.8789-1.6289-3.9297l-12.5-12.5c-2.0977-2.1016-5.7578-2.1016-7.8555 0-1.0508 1.0469-1.6289 2.4453-1.6289 3.9297s0.57812 2.8789 1.6289 3.9297l8.5703 8.5703-8.5703 8.5703c-1.0508 1.0469-1.6289 2.4453-1.6289 3.9297zm3.5938-1.9648 9.5547-9.5547c0.54297-0.54297 0.54297-1.4219 0-1.9648l-9.5547-9.5547c-0.52344-0.52344-0.8125-1.2227-0.8125-1.9648 0-0.74219 0.28906-1.4375 0.81641-1.9648 0.52344-0.52344 1.2227-0.8125 1.9648-0.8125s1.4375 0.28906 1.9648 0.8125l12.5 12.5c0.52344 0.52344 0.8125 1.2227 0.8125 1.9648 0 0.74219-0.28906 1.4375-0.8125 1.9648l-12.5 12.5c-1.0469 1.0508-2.8789 1.0508-3.9258 0-0.52344-0.52344-0.8125-1.2227-0.8125-1.9648 0-0.74219 0.28906-1.4375 0.8125-1.9648z"/>
  <path d="m41.297 42.77c0.57031 0.19141 1.1602 0.28906 1.7578 0.28906 2.3945 0 4.5117-1.5273 5.2695-3.8008l8.332-25c0.46875-1.4062 0.36328-2.9141-0.30078-4.2422-0.66406-1.3281-1.8047-2.3164-3.2109-2.7852-1.4062-0.47266-2.9141-0.36719-4.2383 0.29297-1.3281 0.66406-2.3203 1.8047-2.793 3.2188l-8.332 25c-0.46875 1.4062-0.36328 2.9141 0.30078 4.2422 0.66406 1.3281 1.8047 2.3164 3.2109 2.7852zm-0.875-6.1484 8.332-25c0.23438-0.70703 0.73047-1.2812 1.3945-1.6133 0.38672-0.19531 0.80859-0.29297 1.2305-0.29297 0.29688 0 0.59766 0.046875 0.88672 0.14844 0.70312 0.23438 1.2734 0.72656 1.6055 1.3906 0.33203 0.66406 0.38672 1.4141 0.15234 2.1211l-8.332 25c-0.47266 1.4219-2.0703 2.2461-3.5156 1.7578-0.70312-0.23437-1.2734-0.72656-1.6055-1.3906-0.33203-0.66406-0.38672-1.4141-0.15234-2.1211z"/>
  <path d="m50 51.391c0-2.2969-1.8672-4.168-4.168-4.168h-12.5c-2.2969 0-4.168 1.8672-4.168 4.168 0 2.2969 1.8672 4.168 4.168 4.168h12.5c2.2969 0 4.168-1.8672 4.168-4.168zm-4.168 1.3867h-12.5c-0.76562 0-1.3906-0.62109-1.3906-1.3906 0-0.76562 0.625-1.3906 1.3906-1.3906h12.5c0.76562 0 1.3906 0.62109 1.3906 1.3906 0 0.76562-0.625 1.3906-1.3906 1.3906z"/>
  <path d="m55.555 51.391c0 2.2969 1.8672 4.168 4.168 4.168h25c2.2969 0 4.168-1.8672 4.168-4.168 0-2.2969-1.8672-4.168-4.168-4.168h-25c-2.2969 0-4.168 1.8672-4.168 4.168zm4.168-1.3906h25c0.76562 0 1.3906 0.62109 1.3906 1.3906 0 0.76562-0.625 1.3906-1.3906 1.3906h-25c-0.76562 0-1.3906-0.62109-1.3906-1.3906 0-0.76562 0.625-1.3906 1.3906-1.3906z"/>
  <path d="m83.332 59.723h-31.945c-2.2969 0-4.168 1.8672-4.168 4.168 0 2.2969 1.8672 4.168 4.168 4.168h31.945c2.2969 0 4.168-1.8672 4.168-4.168 0-2.2969-1.8672-4.168-4.168-4.168zm0 5.5547h-31.945c-0.76562 0-1.3906-0.62109-1.3906-1.3906 0-0.76562 0.625-1.3906 1.3906-1.3906h31.945c0.76562 0 1.3906 0.62109 1.3906 1.3906 0 0.76562-0.625 1.3906-1.3906 1.3906z"/>
  <path d="m69.445 76.391c0-2.2969-1.8672-4.168-4.168-4.168h-13.891c-2.2969 0-4.168 1.8672-4.168 4.168 0 2.2969 1.8672 4.168 4.168 4.168h13.891c2.2969 0 4.168-1.8672 4.168-4.168zm-19.445 0c0-0.76562 0.625-1.3906 1.3906-1.3906h13.891c0.76562 0 1.3906 0.62109 1.3906 1.3906 0 0.76562-0.625 1.3906-1.3906 1.3906h-13.891c-0.76562 0-1.3906-0.62109-1.3906-1.3906z"/>
  <path d="m83.332 72.223h-4.168c-2.2969 0-4.168 1.8672-4.168 4.168 0 2.2969 1.8672 4.168 4.168 4.168h4.168c2.2969 0 4.168-1.8672 4.168-4.168 0-2.2969-1.8672-4.168-4.168-4.168zm0 5.5547h-4.168c-0.76562 0-1.3906-0.62109-1.3906-1.3906 0-0.76562 0.625-1.3906 1.3906-1.3906h4.168c0.76562 0 1.3906 0.62109 1.3906 1.3906 0 0.76562-0.625 1.3906-1.3906 1.3906z"/>
  <path d="m47.223 84.723h-13.891c-2.2969 0-4.168 1.8672-4.168 4.168 0 2.2969 1.8672 4.168 4.168 4.168h13.891c2.2969 0 4.168-1.8672 4.168-4.168 0-2.2969-1.8672-4.168-4.168-4.168zm0 5.5547h-13.891c-0.76562 0-1.3906-0.62109-1.3906-1.3906 0-0.76562 0.625-1.3906 1.3906-1.3906h13.891c0.76562 0 1.3906 0.62109 1.3906 1.3906 0 0.76562-0.625 1.3906-1.3906 1.3906z"/>
  <path d="m86.109 84.723h-25c-2.2969 0-4.168 1.8672-4.168 4.168 0 2.2969 1.8672 4.168 4.168 4.168h25c2.2969 0 4.168-1.8672 4.168-4.168 0-2.2969-1.8672-4.168-4.168-4.168zm0 5.5547h-25c-0.76562 0-1.3906-0.62109-1.3906-1.3906 0-0.76562 0.625-1.3906 1.3906-1.3906h25c0.76562 0 1.3906 0.62109 1.3906 1.3906 0 0.76562-0.625 1.3906-1.3906 1.3906z"/>
 </g>
<text x="0.0" y="117.5" font-size="5.0" font-weight="bold" font-family="Arbeit Regular, Helvetica, Arial-Unicode, Arial, Sans-serif" fill="#000000"> </text><text x="0.0" y="122.5" font-size="5.0" font-weight="bold" font-family="Arbeit Regular, Helvetica, Arial-Unicode, Arial, Sans-serif" fill="#000000"></text></svg>